<svg viewBox="0 0 320 180" xmlns="http://www.w3.org/2000/svg">
    <path fill="#ffffff" d="m208 72a48 48 0 01-48 48 48 48 0 01-48-48 48 48 0 0148-48 48 48 0 0148 48z"/>
    <path d="m221.5 150v4.98h6.015v-4.98z"/>
    <path d="m157 150v4.98h6.015v-4.98z"/>
    <path d="m124 138v4.5h2.505v12.51h5.82v-16.95z"/>
    <path d="m218.5 138h-10.68c-1.665 0-2.97.48-3.93 1.425-.93.93-1.395 2.235-1.395 3.9v7.65c0 1.515.45 2.715 1.365 3.63s2.115 1.365 3.63 1.365c3.18 0 6.855-.225 10.995-.66v-4.35c-3.99.33-7.005.51-9 .51a1.125 1.125 0 01-1.17-1.17v-6.495c0-.9.45-1.335 1.335-1.335h8.85z"/>
    <path d="m199 138h-10.68c-1.68 0-2.985.48-3.93 1.425-.93.93-1.395 2.235-1.395 3.9v7.65c0 1.515.45 2.715 1.35 3.63.915.915 2.13 1.365 3.63 1.365 3.18 0 6.855-.225 10.995-.66v-4.35c-3.99.33-7.005.51-9 .51a1.125 1.125 0 01-1.17-1.17v-6.495c0-.9.435-1.335 1.32-1.335h8.85z"/>
    <path d="m181 138h-10.68c-1.665 0-2.97.48-3.93 1.425-.93.93-1.395 2.235-1.395 3.9v7.65c0 1.515.45 2.715 1.365 3.63s2.115 1.365 3.63 1.365c3.18 0 6.855-.225 10.995-.66v-4.35c-3.99.33-7.005.51-9 .51a1.125 1.125 0 01-1.17-1.17v-6.495c0-.9.435-1.335 1.335-1.335h8.85z"/>
    <path d="m256 138c-1.68 0-2.985.48-3.93 1.44-.93.93-1.41 2.235-1.41 3.9v8.01c0 1.515.465 2.715 1.365 3.63.915.915 2.13 1.365 3.63 1.365 3.48 0 7.365-.225 11.67-.66v-4.185c-4.23.33-7.455.495-9.645.495a1.125 1.125 0 01-1.17-1.17v-1.335h11.52v-6.18c0-1.665-.48-2.97-1.44-3.9-.93-.96-2.235-1.44-3.9-1.44zm1.83 4.14h3c.885 0 1.335.45 1.335 1.335v1.83h-5.655v-1.83c0-.885.435-1.335 1.335-1.335z"/>
    <path d="m148 138c-3.27 0-6.93.225-10.995.66v4.185c1.065-.075 2.475-.165 4.185-.3 1.755-.135 3.345-.195 4.785-.195a1.125 1.125 0 011.17 1.17v1.335h-6.81c-1.515 0-2.73.45-3.63 1.365-.915.915-1.365 2.13-1.365 3.63v1.5c0 1.515.45 2.715 1.365 3.63s2.13 1.365 3.63 1.365h1.17c.75 0 1.68-.165 2.76-.465 1.11-.33 2.19-.84 3.24-1.53l.33 1.665h5.175v-12.99c0-1.515-.465-2.715-1.365-3.63-.915-.915-2.13-1.365-3.63-1.365zm-5.655 10.995h4.815v1.995a14.145 14.145 0 01-3.99.66h-.825a1.125 1.125 0 01-1.17-1.17v-.33c0-.33.12-.615.33-.84a1.125 1.125 0 01.84-.33z"/>
    <path d="m88 138c-1.665 0-2.97.48-3.93 1.44-.93.93-1.395 2.235-1.395 3.9v8.01c0 1.515.45 2.715 1.365 3.63s2.13 1.365 3.63 1.365c3.48 0 7.365-.225 11.67-.66v-4.185c-4.23.33-7.455.495-9.675.495a1.125 1.125 0 01-1.17-1.17v-1.335h11.475v-6.18c0-1.665-.48-2.97-1.44-3.9-.93-.96-2.235-1.44-3.9-1.44zm1.83 4.14h3c.885 0 1.335.45 1.335 1.335v1.83h-5.655v-1.83c0-.885.435-1.335 1.335-1.335z"/>
    <path d="m63.55 138c-.75 0-1.68.165-2.79.51a11.595 11.595 0 00-3.21 1.5l-.33-1.665h-5.175v17.7h5.82v-12.465c1.56-.435 2.835-.66 3.825-.66h.165a1.125 1.125 0 011.17 1.17v11.985h5.85v-12.51c1.56-.435 2.835-.66 3.825-.66h.165a1.125 1.125 0 011.17 1.17v11.985h5.82v-12.99c0-1.515-.465-2.715-1.365-3.63-.915-.915-2.13-1.365-3.63-1.365h-.33c-.93 0-1.995.165-3.195.495a10.8 10.8 0 00-3.3 1.5c-.975-1.335-2.37-1.995-4.14-1.995z"/>
    <path d="m241 132v5.655h-6.855c-1.665 0-2.97.48-3.93 1.425-.93.93-1.41 2.235-1.41 3.9v7.65c0 1.515.465 2.715 1.365 3.63.915.915 2.115 1.365 3.63 1.365h1.5c.75 0 1.68-.165 2.775-.465 1.11-.33 2.19-.84 3.225-1.53l.33 1.665h5.175v-23.25zm-4.98 10.155h5.025v8.01a14.145 14.145 0 01-3.99.66h-1.17a1.125 1.125 0 01-1.17-1.17v-6.18c0-.885.45-1.335 1.335-1.335z"/>
    <path d="m115 132v5.655h-6.81c-1.665 0-2.97.48-3.93 1.425-.93.93-1.395 2.235-1.395 3.9v7.65c0 1.515.45 2.715 1.365 3.63s2.13 1.365 3.63 1.365h1.5c.75 0 1.68-.165 2.76-.465 1.11-.33 2.19-.84 3.225-1.53l.345 1.665h5.175v-23.25zm-4.98 10.155h4.98v8.01a14.145 14.145 0 01-3.99.66h-1.17a1.125 1.125 0 01-1.17-1.17v-6.18c0-.885.45-1.335 1.335-1.335z"/>
    <path d="m127 132v4.665h5.82v-4.665z"/>
    <path d="m146.5 83.1v5.475a6.96 6.96 0 014.02 1.35 6.435 6.435 0 012.07 2.52c.435 1.005.615 2.13.405 3.225a5.535 5.535 0 01-1.215 2.625 6.09 6.09 0 01-2.355 1.695 6.435 6.435 0 01-2.91.45v13.845l28.8-15.6z"/>
    <path d="m160 24a48 48 0 00-48 48 48 48 0 003.12 17.1c.705-1.83 1.515-3.645 2.52-5.325.525-.855 1.095-1.695 1.47-2.625a4.425 4.425 0 00.255-2.925 5.055 5.055 0 00-.825-1.485c-.33-.465-.705-.9-1.02-1.38a6.15 6.15 0 01-.945-4.14 5.55 5.55 0 012.145-3.66 5.79 5.79 0 013.645-1.065 6.51 6.51 0 011.275.165 8.115 8.115 0 014.26 2.79c1.35 1.65 2.145 3.75 2.34 5.88s-.195 4.305-1.02 6.27c-1.47 3.54-4.26 6.39-5.79 9.915-1.245 2.865-1.605 6.06-1.44 9.18.03.285.06.57.075.87a48 48 0 0013.44 11.805 65.25 65.25 0 01-.465-7.815c0-2.085.12-4.155.315-6.21a11.145 11.145 0 01-3.21-3.195c-1.455-2.295-1.725-5.205-1.125-7.86.6-2.64 2.01-5.07 3.69-7.2a28.95 28.95 0 0110.485-8.28c-.12-.165-.24-.33-.33-.465a18 18 0 01-2.61-8.055c-.21-2.865.255-5.76.42-8.61.135-2.01.15-4.02.255-6.03.135-2.34.405-4.65 1.065-6.885.24-.825.525-1.62.99-2.325a5.19 5.19 0 012.205-1.905 5.085 5.085 0 012.865-.33c.825.18 1.575.585 2.235 1.095.675.51 1.245 1.125 1.785 1.755a27 27 0 013.855 5.985 13.185 13.185 0 014.035 0 27 27 0 013.855-5.985c.54-.645 1.11-1.26 1.785-1.755a5.64 5.64 0 012.235-1.095 4.695 4.695 0 012.895.33 5.19 5.19 0 012.19 1.905c.465.705.75 1.515.99 2.325.66 2.235.945 4.56 1.08 6.885.12 1.995.12 4.02.255 6.015.195 2.865.66 5.745.42 8.61a18 18 0 01-2.61 8.07c-.12.195-.24.36-.375.54.9 1.035 2.205 1.905 3.33 2.28a7.245 7.245 0 003.87.165 6.12 6.12 0 001.995-.84 4.635 4.635 0 001.47-1.545 6.54 6.54 0 00.705-2.535c.24-2.25 0-4.53-.195-6.795-.12-1.455-.225-2.955.09-4.38a5.07 5.07 0 011.395-2.61 4.095 4.095 0 011.725-.945 4.86 4.86 0 011.965-.105 5.145 5.145 0 013.495 2.19 6.33 6.33 0 01.885 2.235c.165.795.225 1.605.255 2.415.165 2.805.15 5.625.06 8.445-.06 2.475-.21 4.995-1.185 7.26-1.26 2.895-3.825 5.055-6.555 6.6a26.1 26.1 0 01-5.88 2.415 62.1 62.1 0 012.7 18.3 65.1 65.1 0 01-.495 7.86 48 48 0 0023.55-41.25 48 48 0 00-48-48z"/>
</svg>
